nColumns=28
nRows=66
DataType=double
version=3
OpenSimVersion=4.1
endheader
time	ground_force_1_vx	ground_force_1_vy	ground_force_1_vz	ground_force_1_px	ground_force_1_py	ground_force_1_pz	ground_force_1_mx	ground_force_1_my	ground_force_1_mz	ground_force_2_vx	ground_force_2_vy	ground_force_2_vz	ground_force_2_px	ground_force_2_py	ground_force_2_pz	ground_force_2_mx	ground_force_2_my	ground_force_2_mz	ground_force_3_vx	ground_force_3_vy	ground_force_3_vz	ground_force_3_px	ground_force_3_py	ground_force_3_pz	ground_force_3_mx	ground_force_3_my	ground_force_3_mz
1.42	-51.0827	82.8962	-1.44845	-0.125156	0.006	-0.440964	0	0.464509	0	-60.7996	91.8747	10.0231	-0.094047	0.006	-0.811186	0	-0.263306	0	0	0	0	0	0	0	0	0	0
1.43	-270.13	501.382	-27.7094	-0.137218	0.006	-0.433191	0	1.47491	0	-256.086	437.413	56.0308	-0.114573	0.006	-0.818541	0	-1.06206	0	0	0	0	0	0	0	0	0	0
1.44	-266.612	676.072	-72.3082	-0.145527	0.006	-0.430608	0	2.53899	0	-221.053	575.414	124.668	-0.138952	0.006	-0.81905	0	-3.23473	0	0	0	0	0	0	0	0	0	0
1.45	-150.64	707.369	-85.2002	-0.168549	0.006	-0.432789	0	1.18473	0	-28.3386	857.237	121.413	-0.197822	0.006	-0.805899	0	0.488063	0	0	0	0	0	0	0	0	0	0
1.46	-151.611	1026.85	-81.5833	-0.204321	0.006	-0.440266	0	-3.15403	0	27.7685	1288.58	81.5165	-0.222645	0.006	-0.798601	0	5.79889	0	0	0	0	0	0	0	0	0	0
1.47	-124.972	1287.27	-84.8954	-0.223264	0.006	-0.443919	0	-7.29446	0	-79.6114	1042.87	66.8463	-0.213512	0.006	-0.797545	0	7.70714	0	0	0	0	0	0	0	0	0	0
1.48	-210.784	1118.2	-85.0017	-0.214716	0.006	-0.444633	0	-7.46947	0	-254.664	667.332	72.547	-0.176467	0.006	-0.799237	0	5.65729	0	0	0	0	0	0	0	0	0	0
1.49	-278.399	862.282	-76.7879	-0.193431	0.006	-0.444369	0	-6.03452	0	-286.368	502.024	66.0926	-0.145715	0.006	-0.79971	0	3.53091	0	0	0	0	0	0	0	0	0	0
1.5	-239.499	730.783	-76.1142	-0.18018	0.006	-0.443352	0	-5.58644	0	-230.398	466.332	54.3024	-0.141208	0.006	-0.797906	0	3.58453	0	0	0	0	0	0	0	0	0	0
1.51	-190.072	704.56	-76.6022	-0.177149	0.006	-0.442853	0	-6.54392	0	-183.866	494.568	48.5584	-0.147733	0.006	-0.796176	0	4.86804	0	0	0	0	0	0	0	0	0	0
1.52	-180.636	710.175	-74.0677	-0.175414	0.006	-0.443275	0	-7.78761	0	-155.563	559.359	48.5805	-0.157498	0.006	-0.794617	0	5.7988	0	0	0	0	0	0	0	0	0	0
1.53	-180.313	717.922	-77.3008	-0.174447	0.006	-0.443493	0	-8.26778	0	-124.343	636.437	62.7899	-0.167811	0.006	-0.794293	0	5.75691	0	0	0	0	0	0	0	0	0	0
1.54	-159.737	723.396	-80.4855	-0.176168	0.006	-0.44355	0	-8.58948	0	-92.9371	688.47	75.1384	-0.175212	0.006	-0.794035	0	5.76161	0	0	0	0	0	0	0	0	0	0
1.55	-126.865	724.656	-79.8535	-0.179623	0.006	-0.443706	0	-8.98737	0	-75.4732	679.246	71.8331	-0.177468	0.006	-0.792786	0	6.17158	0	0	0	0	0	0	0	0	0	0
1.56	-101.79	710.102	-77.7454	-0.181827	0.006	-0.443859	0	-8.99155	0	-74.8456	618.627	61.637	-0.174919	0.006	-0.791199	0	6.53332	0	0	0	0	0	0	0	0	0	0
1.57	-90.1402	675.918	-72.5548	-0.181665	0.006	-0.444055	0	-8.88249	0	-83.0322	549.695	52.7442	-0.170228	0.006	-0.789757	0	6.75878	0	0	0	0	0	0	0	0	0	0
1.58	-86.0989	636.266	-64.3382	-0.18048	0.006	-0.444435	0	-8.94534	0	-92.7974	500.323	44.798	-0.166645	0.006	-0.788313	0	7.05244	0	0	0	0	0	0	0	0	0	0
1.59	-81.2654	601.054	-56.6074	-0.179872	0.006	-0.44476	0	-8.93644	0	-92.9215	473.56	38.2146	-0.166355	0.006	-0.786841	0	7.29139	0	0	0	0	0	0	0	0	0	0
1.6	-71.8804	568.175	-52.5277	-0.180112	0.006	-0.444752	0	-8.61069	0	-80.8059	461.547	34.7784	-0.169342	0.006	-0.785619	0	7.3662	0	0	0	0	0	0	0	0	0	0
1.61	-59.1589	534.301	-50.2532	-0.180721	0.006	-0.444427	0	-8.08865	0	-63.6282	457.161	34.1387	-0.173825	0.006	-0.784788	0	7.28962	0	0	0	0	0	0	0	0	0	0
1.62	-47.1201	503.115	-47.7909	-0.181703	0.006	-0.444035	0	-7.54413	0	-48.0727	454.437	34.5669	-0.178198	0.006	-0.78412	0	7.11566	0	0	0	0	0	0	0	0	0	0
1.63	-37.1026	479.349	-45.8198	-0.183204	0.006	-0.443701	0	-7.12359	0	-36.2545	448.478	34.6208	-0.181519	0.006	-0.783573	0	7.00221	0	0	0	0	0	0	0	0	0	0
1.64	-27.2159	460.345	-44.5346	-0.185119	0.006	-0.443242	0	-6.84591	0	-29.0476	437.755	34.7844	-0.183362	0.006	-0.783449	0	6.93177	0	0	0	0	0	0	0	0	0	0
1.65	-17.6175	440.098	-43.508	-0.186945	0.006	-0.442746	0	-6.61812	0	-25.9589	423.345	35.4828	-0.183921	0.006	-0.783678	0	6.77776	0	0	0	0	0	0	0	0	0	0
1.66	-10.1465	416.865	-42.2772	-0.188098	0.006	-0.442182	0	-6.36372	0	-23.6959	407.94	35.9252	-0.183982	0.006	-0.784008	0	6.56749	0	0	0	0	0	0	0	0	0	0
1.67	-5.37877	392.043	-40.4579	-0.188133	0.006	-0.441536	0	-6.10092	0	-19.945	394.104	35.5771	-0.184004	0.006	-0.784454	0	6.37752	0	0	0	0	0	0	0	0	0	0
1.68	-2.09682	368.189	-38.1895	-0.187249	0.006	-0.440994	0	-5.83507	0	-15.5712	382.486	34.72	-0.183956	0.006	-0.785031	0	6.19197	0	0	0	0	0	0	0	0	0	0
1.69	0.656338	346.473	-35.7654	-0.185523	0.006	-0.441083	0	-5.54532	0	-11.8145	372.722	34.661	-0.1832	0.006	-0.785749	0	5.90774	0	0	0	0	0	0	0	0	0	0
1.7	3.13976	325.595	-32.8982	-0.183135	0.006	-0.441677	0	-5.31459	0	-8.48177	363.655	35.9742	-0.181559	0.006	-0.786751	0	5.48765	0	0	0	0	0	0	0	0	0	0
1.71	5.44149	305.213	-29.9034	-0.180389	0.006	-0.442128	0	-5.06889	0	-5.01452	354.565	37.3113	-0.179042	0.006	-0.787799	0	4.99834	0	0	0	0	0	0	0	0	0	0
1.72	7.69857	287.06	-27.7466	-0.177026	0.006	-0.442465	0	-4.70418	0	-1.49645	346.043	37.4835	-0.175916	0.006	-0.788608	0	4.55359	0	0	0	0	0	0	0	0	0	0
1.73	10.0349	271.946	-26.2035	-0.173091	0.006	-0.442869	0	-4.26785	0	0.097641	339.322	36.6013	-0.171866	0.006	-0.78888	0	4.22546	0	0	0	0	0	0	0	0	0	0
1.74	12.2406	259.003	-24.7298	-0.168798	0.006	-0.443484	0	-3.8384	0	-1.0786	334.428	34.9072	-0.167261	0.006	-0.789089	0	4.11529	0	0	0	0	0	0	0	0	0	0
1.75	13.9034	247.406	-23.0264	-0.164468	0.006	-0.44436	0	-3.55421	0	-2.47695	332.306	33.2467	-0.163114	0.006	-0.789286	0	4.12724	0	0	0	0	0	0	0	0	0	0
1.76	15.0715	238.169	-20.7986	-0.160434	0.006	-0.445453	0	-3.45592	0	-2.78203	334.707	33.0399	-0.160126	0.006	-0.789537	0	4.24796	0	0	0	0	0	0	0	0	0	0
1.77	15.8945	232.708	-18.2043	-0.157123	0.006	-0.446519	0	-3.54082	0	-1.87149	341.921	34.8556	-0.157941	0.006	-0.79015	0	4.35795	0	0	0	0	0	0	0	0	0	0
1.78	16.1325	230.611	-15.5335	-0.154414	0.006	-0.447643	0	-3.70958	0	0.275199	352.505	38.3132	-0.156584	0.006	-0.791031	0	4.42314	0	0	0	0	0	0	0	0	0	0
1.79	15.5067	231.115	-13.3648	-0.152117	0.006	-0.44897	0	-3.91299	0	2.79942	366.653	42.6306	-0.155252	0.006	-0.792046	0	4.50224	0	0	0	0	0	0	0	0	0	0
1.8	13.6584	234.695	-12.247	-0.149438	0.006	-0.45048	0	-4.08692	0	3.77555	383.922	47.2078	-0.15288	0.006	-0.792987	0	4.5758	0	0	0	0	0	0	0	0	0	0
1.81	10.6396	241.365	-11.9305	-0.146225	0.006	-0.451921	0	-4.20388	0	2.0619	399.984	50.7847	-0.148737	0.006	-0.793257	0	4.68988	0	0	0	0	0	0	0	0	0	0
1.82	7.19616	247.867	-11.4997	-0.142582	0.006	-0.453253	0	-4.29452	0	-2.03725	412.605	52.1193	-0.143329	0.006	-0.792766	0	4.84817	0	0	0	0	0	0	0	0	0	0
1.83	3.04429	250.833	-10.6432	-0.138645	0.006	-0.454393	0	-4.28678	0	-7.44848	421.638	51.6372	-0.137331	0.006	-0.791753	0	4.96208	0	0	0	0	0	0	0	0	0	0
1.84	-1.2349	251.061	-9.38244	-0.134781	0.006	-0.455446	0	-4.20116	0	-13.5843	426.007	50.0789	-0.131028	0.006	-0.790171	0	4.97967	0	0	0	0	0	0	0	0	0	0
1.85	-4.84074	252.114	-7.69157	-0.13134	0.006	-0.456594	0	-4.11081	0	-18.8096	426.594	47.1361	-0.125279	0.006	-0.788336	0	4.98242	0	0	0	0	0	0	0	0	0	0
1.86	-7.95072	257.334	-6.238	-0.128731	0.006	-0.457441	0	-4.04206	0	-21.6905	425.935	43.3583	-0.12052	0.006	-0.786516	0	5.0457	0	0	0	0	0	0	0	0	0	0
1.87	-11.344	267.955	-5.90526	-0.12701	0.006	-0.45794	0	-3.9615	0	-22.2271	426.129	39.9433	-0.116836	0.006	-0.784863	0	5.18091	0	0	0	0	0	0	0	0	0	0
1.88	-14.2611	281.723	-6.97455	-0.125996	0.006	-0.458486	0	-3.87866	0	-21.3276	427.962	37.9108	-0.114153	0.006	-0.783501	0	5.26887	0	0	0	0	0	0	0	0	0	0
1.89	-15.6733	297.189	-9.59782	-0.125663	0.006	-0.458599	0	-3.73594	0	-20.2507	430.888	37.5815	-0.112128	0.006	-0.782386	0	5.26818	0	0	0	0	0	0	0	0	0	0
1.9	-15.7933	313.53	-13.6008	-0.125864	0.006	-0.458247	0	-3.55216	0	-19.9151	435.035	38.5754	-0.110739	0.006	-0.781465	0	5.24436	0	0	0	0	0	0	0	0	0	0
1.91	-15.2477	330.167	-18.3635	-0.126636	0.006	-0.457985	0	-3.30319	0	-20.4645	441.521	40.0877	-0.109561	0.006	-0.780579	0	5.24588	0	0	0	0	0	0	0	0	0	0
1.92	-15.0014	348.682	-23.867	-0.127888	0.006	-0.457623	0	-3.05511	0	-21.4926	451.169	41.5793	-0.108542	0.006	-0.77992	0	5.31055	0	0	0	0	0	0	0	0	0	0
1.93	-15.4118	369.339	-29.7646	-0.129129	0.006	-0.457374	0	-2.91831	0	-22.4548	463.649	42.7936	-0.107843	0.006	-0.779284	0	5.45951	0	0	0	0	0	0	0	0	0	0
1.94	-14.7921	392.52	-35.0056	-0.130245	0.006	-0.45745	0	-3.01825	0	-23.5107	477.776	43.9799	-0.107411	0.006	-0.778469	0	5.58087	0	0	0	0	0	0	0	0	0	0
1.95	-13.1498	417.757	-38.6531	-0.131217	0.006	-0.457809	0	-3.41962	0	-24.6533	492.052	46.0387	-0.106822	0.006	-0.777715	0	5.56831	0	0	0	0	0	0	0	0	0	0
1.96	-10.8046	442.819	-40.431	-0.132089	0.006	-0.458263	0	-4.0125	0	-25.2834	506.174	48.797	-0.106162	0.006	-0.777068	0	5.5103	0	0	0	0	0	0	0	0	0	0
1.97	-7.16504	466.722	-41.4405	-0.133013	0.006	-0.458733	0	-4.5987	0	-24.5025	521.058	52.0576	-0.105656	0.006	-0.776454	0	5.44805	0	0	0	0	0	0	0	0	0	0
1.98	-2.07298	490.057	-44.1114	-0.133797	0.006	-0.458858	0	-4.93762	0	-22.9187	538.016	55.7284	-0.10536	0.006	-0.776153	0	5.37263	0	0	0	0	0	0	0	0	0	0
1.99	3.17821	511.582	-49.3023	-0.134234	0.006	-0.458812	0	-4.93863	0	-22.8799	556.461	59.19	-0.104975	0.006	-0.776038	0	5.31683	0	0	0	0	0	0	0	0	0	0
2	6.07306	531.217	-56.092	-0.134557	0.006	-0.458406	0	-4.77676	0	-25.9358	574.954	62.0078	-0.104592	0.006	-0.776075	0	5.37317	0	0	0	0	0	0	0	0	0	0
2.01	4.70138	549.73	-62.9395	-0.134893	0.006	-0.45821	0	-4.71335	0	-31.9577	592.721	63.6766	-0.104098	0.006	-0.775977	0	5.53306	0	0	0	0	0	0	0	0	0	0
2.02	-1.40201	569.58	-68.7305	-0.135257	0.006	-0.458209	0	-4.95498	0	-39.0512	610.777	63.5504	-0.103778	0.006	-0.775697	0	5.82846	0	0	0	0	0	0	0	0	0	0
2.03	-9.26683	593.22	-73.1839	-0.135811	0.006	-0.458215	0	-5.43093	0	-44.9419	630.343	62.7043	-0.103806	0.006	-0.775456	0	6.19586	0	0	0	0	0	0	0	0	0	0
2.04	-15.8409	620.905	-77.1611	-0.136526	0.006	-0.458059	0	-5.93516	0	-48.7652	650.848	62.5021	-0.10394	0.006	-0.77539	0	6.47092	0	0	0	0	0	0	0	0	0	0
2.05	-20.3921	650.658	-81.5374	-0.137198	0.006	-0.457763	0	-6.25673	0	-51.3642	671.208	64.2423	-0.104065	0.006	-0.775657	0	6.51515	0	0	0	0	0	0	0	0	0	0
2.06	-23.5758	679.763	-86.8732	-0.137783	0.006	-0.457192	0	-6.3048	0	-53.5755	689.333	68.2452	-0.104066	0.006	-0.776121	0	6.26758	0	0	0	0	0	0	0	0	0	0
2.07	-27.4247	704.658	-91.7507	-0.138155	0.006	-0.456453	0	-6.13675	0	-56.508	703.531	72.8192	-0.103995	0.006	-0.776689	0	5.84755	0	0	0	0	0	0	0	0	0	0
